<?xml version="1.0" encoding="UTF-8"?>
<svg width="18px" height="18px" viewBox="0 0 18 18" version="1.1" xmlns="http://www.w3.org/2000/svg"
     xmlns:xlink="http://www.w3.org/1999/xlink">
    <title>Group_8</title>
    <g id="Page-1" stroke="none" stroke-width="1" fill="none" fill-rule="evenodd" stroke-linecap="round"
       stroke-linejoin="round">
        <g id="24x24-Stroke-icon" transform="translate(-180.252096, -44.189301)" stroke="#130F26" stroke-width="1.5">
            <g id="Group_8" transform="translate(181.771957, 45.880045)">
                <line x1="9.08013873" y1="15.3092559" x2="15.4801387" y2="15.3092559" id="Path_27-2"></line>
                <path d="M11.8101387,0.629255894 L11.8101387,0.629255894 C11.1697816,0.13270714 10.3557891,-0.0836801662 9.55338915,0.0293339167 C8.75098916,0.142348 8.02843193,0.575150754 7.55013873,1.22925589 L0.800138728,10.2292559 C-0.939861272,12.5492559 0.700138728,15.4192559 0.700138728,15.4192559 C0.700138728,15.4192559 3.95013873,16.1692559 5.70013873,13.8792559 L12.4501387,4.87925589 C12.9392984,4.23452527 13.1472245,3.41951213 13.0267132,2.61924232 C12.906202,1.81897251 12.4674771,1.1013374 11.8101387,0.629255894 L11.8101387,0.629255894 Z"
                      id="Path_28"></path>
                <line x1="6.25013873" y1="2.97925589" x2="11.1101387" y2="6.62925589" id="Path_29"></line>
            </g>
        </g>
    </g>
</svg>
