<?xml version="1.0" encoding="UTF-8"?>
<svg width="21px" height="21px" viewBox="0 0 21 21" version="1.1" xmlns="http://www.w3.org/2000/svg"
     xmlns:xlink="http://www.w3.org/1999/xlink">
    <title>Group_814</title>
    <defs>
        <rect id="path-1" x="-2.84217094e-14" y="-1.77635684e-15" width="7.56" height="9.01"></rect>
    </defs>
    <g id="Page-1" stroke="none" stroke-width="1" fill="none" fill-rule="evenodd">
        <g id="24x24-Fill-icon" transform="translate(-225.861691, -4.988036)">
            <g id="Group_814" transform="translate(226.751691, 6.548036)">
                <path d="M0,9.25 C0,16.19 2.32,18.5 9.25,18.5 C16.18,18.5 18.5,16.19 18.5,9.25 C18.5,2.31 16.19,0 9.25,0 C2.31,0 0,2.32 0,9.25 Z"
                      id="Path_583" stroke="#130F26" stroke-width="1.5" fill="#130F26" stroke-linecap="round"
                      stroke-linejoin="round"></path>
                <g id="Clipped" transform="translate(4.830000, 4.750000)">
                    <mask id="mask-2" fill="white">
                        <use xlink:href="#path-1"></use>
                    </mask>
                    <g id="Rectangle"></g>
                    <g id="Group_812" mask="url(#mask-2)" fill="#FFFFFF" fill-rule="nonzero">
                        <g transform="translate(0.009556, -0.005675)" id="Path_593">
                            <path d="M7.5504437,8.38567549 C7.55647364,8.7169056 7.30104205,8.99435715 6.9704437,9.01567549 L5.7304437,9.01567549 C3.80772549,9.11202775 2.10511848,7.78399428 1.7304437,5.89567549 L0.460443698,5.89567549 C0.189878207,5.84963722 0.00426605759,5.59773502 0.0404436984,5.32567549 C0.073109463,5.10867869 0.2434469,4.93834125 0.460443698,4.90567549 L1.6004437,4.90567549 C1.6004437,4.78567549 1.6004437,4.64567549 1.6004437,4.51567549 C1.59025265,4.36918585 1.59025265,4.22216513 1.6004437,4.07567549 L0.450443698,4.07567549 C0.193222377,4.05963476 -0.00542516644,3.84332966 0.000443698406,3.58567549 C-0.00497499208,3.46099397 0.0394166004,3.33927644 0.123831412,3.24735808 C0.208246224,3.15543973 0.325752571,3.1008684 0.450443698,3.09567549 L1.7304437,3.09567549 C2.11413826,1.21695427 3.81572019,-0.0975177763 5.7304437,0.00567549035 L6.9704437,0.00567549035 C7.13236141,0.00804638593 7.28618729,0.0768643177 7.39586744,0.195999661 C7.5055476,0.315135004 7.5614397,0.474114187 7.5504437,0.63567549 C7.55859886,0.797507846 7.50203026,0.955935092 7.39321879,1.07600292 C7.28440732,1.19607074 7.13229531,1.26791177 6.9704437,1.27567549 L5.7304437,1.27567549 C4.52471936,1.18471665 3.41649478,1.94013565 3.0604437,3.09567549 L6.1704437,3.09567549 C6.29424452,3.09824913 6.41177937,3.15062639 6.49647014,3.24096321 C6.5811609,3.33130002 6.62585425,3.45196619 6.6204437,3.57567549 L6.6204437,3.57567549 C6.62631256,3.83332966 6.42766502,4.04963476 6.1704437,4.06567549 L2.8804437,4.06567549 C2.87018779,4.21216287 2.87018779,4.35918811 2.8804437,4.50567549 C2.8804437,4.66567549 2.8804437,4.78567549 2.8804437,4.89567549 L6.1804437,4.89567549 C6.311804,4.91540391 6.42991495,4.9865923 6.50871166,5.09353068 C6.58750836,5.20046906 6.62051359,5.33436693 6.6004437,5.46567549 C6.55941323,5.67834231 6.39311052,5.84464502 6.1804437,5.88567549 L3.0604437,5.88567549 C3.40913712,7.05470989 4.52372336,7.82410711 5.7404437,7.73567549 L6.9804437,7.73567549 C7.14229531,7.74343921 7.29440732,7.81528024 7.40321879,7.93534806 C7.51203026,8.05541589 7.56859886,8.21384313 7.5604437,8.37567549 L7.5604437,8.37567549"></path>
                        </g>
                    </g>
                </g>
            </g>
        </g>
    </g>
</svg>
