<?xml version="1.0" encoding="UTF-8"?>
<svg width="21px" height="17px" viewBox="0 0 21 17" version="1.1" xmlns="http://www.w3.org/2000/svg"
     xmlns:xlink="http://www.w3.org/1999/xlink">
    <title>Group_11</title>
    <g id="Page-1" stroke="none" stroke-width="1" fill="none" fill-rule="evenodd" stroke-linecap="round"
       stroke-linejoin="round">
        <g id="24x24-Stroke-icon" transform="translate(-47.252096, -89.189301)" stroke="#130F26" stroke-width="1.5">
            <g id="Group_11" transform="translate(48.252096, 90.359301)">
                <path d="M12.41,7.3 C12.41,9.04521981 10.9952198,10.46 9.25,10.46 C7.50478019,10.46 6.09,9.04521981 6.09,7.3 C6.09,5.55478019 7.50478019,4.14 9.25,4.14 C10.9952198,4.14 12.41,5.55478019 12.41,7.3 L12.41,7.3 Z"
                      id="Path_34"></path>
                <path d="M0,7.3 C0,10.58 4.14,14.6 9.25,14.6 C14.36,14.6 18.5,10.6 18.5,7.3 C18.5,4 14.36,0 9.25,0 C4.14,0 0,4.02 0,7.3 Z"
                      id="Path_35-2"></path>
            </g>
        </g>
    </g>
</svg>
