<?xml version="1.0" encoding="UTF-8"?>
<svg width="22px" height="19px" viewBox="0 0 22 19" version="1.1" xmlns="http://www.w3.org/2000/svg"
     xmlns:xlink="http://www.w3.org/1999/xlink">
    <title>Group_10</title>
    <g id="Page-1" stroke="none" stroke-width="1" fill="none" fill-rule="evenodd" stroke-linecap="round"
       stroke-linejoin="round">
        <g id="24x24-Stroke-icon" transform="translate(-2.252096, -88.189301)" stroke="#130F26" stroke-width="1.5">
            <g id="Group_10" transform="translate(4.001362, 89.157850)">
                <path d="M0.370733982,8.92145141 C-0.699266018,5.57145141 0.550733982,1.40145141 4.07073398,0.271451411 C6.05584264,-0.390270428 8.24176809,0.290063643 9.50073398,1.96145141 C10.7329175,0.258786497 12.9391931,-0.429148122 14.920734,0.271451411 C18.440734,1.40145141 19.700734,5.57145141 18.630734,8.92145141 C16.960734,14.2314514 11.130734,17.0014514 9.50073398,17.0014514 C7.87073398,17.0014514 2.10073398,14.2914514 0.370733982,8.92145141 Z"
                      id="Path_32"></path>
                <path d="M13.250734,4.03145141 C13.8184355,4.08947196 14.3397817,4.37080518 14.6999173,4.8134718 C15.0600528,5.25613841 15.22943,5.82381938 15.170734,6.39145141 L15.170734,6.45145141"
                      id="Path_33"></path>
            </g>
        </g>
    </g>
</svg>
