<?xml version="1.0" encoding="UTF-8"?>
<svg width="22px" height="20px" viewBox="0 0 22 20" version="1.1" xmlns="http://www.w3.org/2000/svg"
     xmlns:xlink="http://www.w3.org/1999/xlink">
    <title>Group_10</title>
    <g id="Page-1" stroke="none" stroke-width="1" fill="none" fill-rule="evenodd" stroke-linecap="round"
       stroke-linejoin="round">
        <g id="24x24-Fill-icon" transform="translate(-312.861691, -5.988036)" stroke-width="2">
            <g id="Group_10" transform="translate(314.486855, 7.304653)">
                <path d="M0.374835177,8.92338309 C-0.705164823,5.57338309 0.554835177,1.40338309 4.07483518,0.273383093 C6.05997506,-0.385101775 8.24400661,0.294642848 9.50483518,1.96338309 C10.7349715,0.25787289 12.9433615,-0.43072104 14.9248352,0.273383093 C18.4348352,1.40338309 19.6948352,5.57338309 18.6248352,8.92338309 C16.9548352,14.2333831 11.1248352,16.9933831 9.50483518,16.9933831 C7.88483518,16.9933831 2.11483518,14.2933831 0.374835177,8.92338309 Z"
                      id="Path_32" stroke="#F8312F" fill="#F8312F"></path>
                <path d="M13.2548352,4.03338309 C13.825183,4.09141694 14.3490643,4.37380725 14.7110726,4.81834589 C15.0730808,5.26288454 15.2435169,5.83310154 15.1848352,6.40338309 L15.1848352,6.46338309"
                      id="Path_33" stroke="#FFFFFF"></path>
            </g>
        </g>
    </g>
</svg>
