<?xml version="1.0" encoding="UTF-8"?>
<svg width="23px" height="24px" viewBox="0 0 23 24" version="1.1" xmlns="http://www.w3.org/2000/svg"
     xmlns:xlink="http://www.w3.org/1999/xlink">
    <title>Path_541</title>
    <defs>
        <linearGradient x1="88.1083879%" y1="13.5077204%" x2="13.3198581%" y2="101.500996%" id="linearGradient-1">
            <stop stop-color="#050640" offset="0%"></stop>
            <stop stop-color="#3BC3FF" offset="100%"></stop>
        </linearGradient>
    </defs>
    <g id="Page-1" stroke="none" stroke-width="1" fill="none" fill-rule="evenodd">
        <g id="24x24-Fill-icon" transform="translate(-160.861691, -165.988036)" fill="url(#linearGradient-1)"
           fill-rule="nonzero">
            <path d="M168.681691,187.908036 L168.681691,184.338036 C168.68715,183.429037 169.422692,182.693495 170.331691,182.688036 L173.671691,182.688036 C174.582354,182.693424 175.3208,183.427422 175.331691,184.338036 L175.331691,184.338036 L175.331691,187.898036 C175.337186,188.683895 175.975812,189.318055 176.761691,189.318036 L179.041691,189.318036 C181.25083,189.318036 183.041691,187.527175 183.041691,185.318036 L183.041691,175.198036 C183.052739,174.349492 182.68639,173.539861 182.041691,172.988036 L174.291691,166.828036 C172.930829,165.752926 170.999552,165.79063 169.681691,166.918036 L162.071691,172.988036 C161.382088,173.51637 160.970003,174.329501 160.951691,175.198036 L160.951691,185.328036 C160.951691,187.537175 162.742552,189.328177 164.951691,189.328177 L167.181691,189.328177 C167.560024,189.333374 167.924842,189.1875 168.195192,188.922782 C168.465542,188.658064 168.619064,188.296397 168.621691,187.918036 L168.681691,187.908036 Z"
                  id="Path_541"></path>
        </g>
    </g>
</svg>
