<?xml version="1.0" encoding="UTF-8"?>
<svg width="21px" height="21px" viewBox="0 0 21 21" version="1.1" xmlns="http://www.w3.org/2000/svg"
     xmlns:xlink="http://www.w3.org/1999/xlink">
    <title>Group_648</title>
    <g id="Page-1" stroke="none" stroke-width="1" fill="none" fill-rule="evenodd" stroke-linecap="round"
       stroke-linejoin="round">
        <g id="24x24-Stroke-icon" transform="translate(-179.252096, -175.189301)" stroke="#130F26" stroke-width="1.5">
            <g id="Group_648" transform="translate(180.252096, 176.409301)">
                <path d="M0,9.25 C0,16.18 2.31,18.5 9.25,18.5 C16.19,18.5 18.5,16.18 18.5,9.25 C18.5,2.32 16.19,0 9.25,0 C2.31,0 0,2.31 0,9.25 Z"
                      id="Path_543"></path>
                <path d="M7.85,6.03 C7.85,7.00202116 7.06202116,7.79 6.09,7.79 C5.11797884,7.79 4.33,7.00202116 4.33,6.03 C4.33,5.05797884 5.11797884,4.27 6.09,4.27 C7.06202116,4.27 7.85,5.05797884 7.85,6.03 L7.85,6.03 Z"
                      id="Path_544"></path>
                <path d="M18.37,11.91 C17.49,11.01 16.24,9.18 13.95,9.18 C11.66,9.18 11.61,13.18 9.28,13.18 C6.95,13.18 6,11.81 4.48,12.53 C2.96,13.25 1.72,16.09 1.72,16.09"
                      id="Path_545"></path>
            </g>
        </g>
    </g>
</svg>
