<?xml version="1.0" encoding="UTF-8"?>
<svg width="27px" height="27px" viewBox="0 0 27 27" version="1.1" xmlns="http://www.w3.org/2000/svg"
     xmlns:xlink="http://www.w3.org/1999/xlink">
    <title>Group</title>
    <defs>
        <linearGradient x1="154.875776%" y1="77.3820292%" x2="-4.7515528%" y2="31.0225045%" id="linearGradient-1">
            <stop stop-color="#050640" offset="0%"></stop>
            <stop stop-color="#3BC3FF" offset="100%"></stop>
        </linearGradient>
        <linearGradient x1="73.4474708%" y1="71.5025072%" x2="7.44747082%" y2="15.5867023%" id="linearGradient-2">
            <stop stop-color="#050640" offset="0%"></stop>
            <stop stop-color="#3BC3FF" offset="100%"></stop>
        </linearGradient>
    </defs>
    <g id="Page-1" stroke="none" stroke-width="1" fill="none" fill-rule="evenodd">
        <g id="24x24-Fill-icon" transform="translate(-262.861691, -163.988036)">
            <g id="Group" transform="translate(263.151691, 164.958036)">
                <path d="M0,11.67 C0.07,14.67 0.25,19.82 0.27,20.38 C0.355118737,21.5836871 0.801200174,22.7337408 1.55,23.68 C2.5150916,24.885751 4.00902246,25.5430806 5.55,25.44 L20.28,25.44 C21.8185628,25.5295046 23.3065307,24.8747987 24.28,23.68 C25.0287213,22.7361985 25.4655418,21.5829921 25.53,20.38 C25.53,19.91 25.68,14.38 25.76,11.67 L0,11.67 Z"
                      id="Path_534" fill="url(#linearGradient-1)" fill-rule="nonzero"></path>
                <path d="M11.89,17.21 L11.89,18.87 C11.7795228,19.2765224 11.9356586,19.7086847 12.2804537,19.9507219 C12.6252487,20.1927592 13.0847513,20.1927592 13.4295463,19.9507219 C13.7743414,19.7086847 13.9304772,19.2765224 13.82,18.87 L13.82,18.87 L13.82,17.21 C13.9304772,16.8034776 13.7743414,16.3713153 13.4295463,16.1292781 C13.0847513,15.8872408 12.6252487,15.8872408 12.2804537,16.1292781 C11.9356586,16.3713153 11.7795228,16.8034776 11.89,17.21 Z"
                      id="Path_535" fill="#DDF4FE" fill-rule="nonzero"></path>
                <path d="M10.56,16.14 C10.4192693,16.5966035 9.97518997,16.8898634 9.5,16.84 C6.26750709,16.4022339 3.17281369,15.2511173 0.44,13.47 C0.173052673,13.2897575 0.00926754841,12.9919664 0,12.67 L0,8.22 C0.0109926372,5.51446996 2.20445317,3.32547676 4.91,3.32 L7.44,3.32 C7.68069098,1.42959076 9.28435499,0.00981356229 11.19,-5.68434189e-14 L14.51,-5.68434189e-14 C16.415645,0.00981356229 18.019309,1.42959076 18.26,3.32 L20.8,3.32 C23.5061953,3.32 25.7,5.51380473 25.7,8.22 L25.7,12.67 C25.6930164,12.9901314 25.5331496,13.2875579 25.27,13.47 C22.526175,15.2601855 19.417165,16.4149607 16.17,16.85 L16.04,16.85 C15.6002081,16.8399111 15.2186594,16.5436021 15.1,16.12 C14.8344696,15.0962543 13.9076014,14.3835956 12.85,14.39 C11.777749,14.3853695 10.8371422,15.1041738 10.56,16.14 L10.56,16.14 Z M14.51,1.93 L11.19,1.93 C10.3471756,1.94012367 9.61292471,2.50712849 9.39,3.32 L16.31,3.32 C16.0992581,2.49903581 15.3575733,1.92629033 14.51,1.93 L14.51,1.93 Z"
                      id="Path_536" fill="url(#linearGradient-2)"></path>
            </g>
        </g>
    </g>
</svg>
