<?xml version="1.0" encoding="UTF-8"?>
<svg width="17px" height="21px" viewBox="0 0 17 21" version="1.1" xmlns="http://www.w3.org/2000/svg"
     xmlns:xlink="http://www.w3.org/1999/xlink">
    <title>Group_803</title>
    <g id="Page-1" stroke="none" stroke-width="1" fill="none" fill-rule="evenodd" stroke-linecap="round"
       stroke-linejoin="round">
        <g id="24x24-Stroke-icon" transform="translate(-93.252096, -43.189301)" stroke="#130F26" stroke-width="1.5">
            <g id="Group_803" transform="translate(94.002096, 44.709301)">
                <g id="Group_6" transform="translate(0.000000, 0.000000)">
                    <path d="M10.01,7.61 C10.01,6.22928813 8.89071187,5.11 7.51,5.11 C6.12928813,5.11 5.01,6.22928813 5.01,7.61 C5.01,8.99071187 6.12928813,10.11 7.51,10.11 C8.89071187,10.11 10.01,8.99071187 10.01,7.61 L10.01,7.61 Z"
                          id="Path_23"></path>
                    <path d="M7.5,17.9 C4.6,17.9 0,12.9 0,7.5 C0,3.35786438 3.35786438,0 7.5,0 C11.6421356,0 15,3.35786438 15,7.5 L15,7.5 C15,12.86 10.4,17.9 7.5,17.9 Z"
                          id="Path_24"></path>
                </g>
            </g>
        </g>
    </g>
</svg>
