<?xml version="1.0" encoding="UTF-8"?>
<svg width="27px" height="32px" viewBox="0 0 27 32" version="1.1" xmlns="http://www.w3.org/2000/svg"
     xmlns:xlink="http://www.w3.org/1999/xlink">
    <title>Group_37</title>
    <g id="Page-1" stroke="none" stroke-width="1" fill="none" fill-rule="evenodd">
        <g id="24x24-Fill-icon" transform="translate(-90.861691, 0.011964)">
            <g id="Group_37" transform="translate(91.780703, 1.092051)">
                <path d="M12.2209871,29.3759847 C7.50098712,29.3759847 0.000987115913,21.1559847 0.000987115913,12.3759847 C-0.0543892473,8.01019907 2.22355986,3.94650386 5.97675301,1.71565382 C9.72994617,-0.515196224 14.388184,-0.574281892 18.1967533,1.56065382 C22.0053227,3.69558952 24.3856111,7.70019907 24.4409871,12.0659847 C24.4509585,12.1690775 24.4509585,12.2728919 24.4409871,12.3759847 C24.4409871,21.1559847 16.9509871,29.3759847 12.2209871,29.3759847 Z"
                      id="Path_24" stroke="#050640" stroke-width="1.5" fill="#050640" stroke-linecap="round"
                      stroke-linejoin="round"></path>
                <path d="M16.3109871,12.6059847 C16.3109871,10.3581858 14.488786,8.53598471 12.2409871,8.53598471 C9.99318818,8.53598471 8.17098712,10.3581858 8.17098712,12.6059847 C8.17098712,14.8537836 9.99318818,16.6759847 12.2409871,16.6759847 C13.3204182,16.6759847 14.3556387,16.2471824 15.1189117,15.4839093 C15.8821848,14.7206362 16.3109871,13.6854158 16.3109871,12.6059847 Z"
                      id="Path_23" fill="#FFFFFF"></path>
            </g>
        </g>
    </g>
</svg>
