<?xml version="1.0" encoding="UTF-8"?>
<svg width="17px" height="21px" viewBox="0 0 17 21" version="1.1" xmlns="http://www.w3.org/2000/svg"
     xmlns:xlink="http://www.w3.org/1999/xlink">
    <title>Group_824 2</title>
    <g id="Page-1" stroke="none" stroke-width="1" fill="none" fill-rule="evenodd" stroke-linecap="round"
       stroke-linejoin="round">
        <g id="24x24-Stroke-icon" transform="translate(-93.252096, -175.189301)" stroke="#130F26" stroke-width="1.5">
            <g id="Group_824-2" transform="translate(94.117951, 176.109301)">
                <g id="Group_824" transform="translate(0.000000, 0.000000)">
                    <path d="M7.38414516,2.84217094e-14 C2.95414516,2.84217094e-14 1.02414516,4 1.02414516,6.67 C1.02414516,8.67 1.31414516,8.07 0.214145156,10.49 C-1.13585484,13.94 4.21414516,15.35 7.38414516,15.35 C10.5541452,15.35 15.8941452,13.94 14.5541452,10.49 C13.4541452,8.07 13.7441452,8.66 13.7441452,6.67 C13.7441452,4.02 11.8141452,2.84217094e-14 7.38414516,2.84217094e-14 Z"
                          id="Path_602"></path>
                    <path d="M9.69414516,18 C8.64229128,19.2710557 6.76147745,19.4542228 5.48414516,18.41 C5.33289335,18.2887413 5.19540389,18.1512518 5.07414516,18"
                          id="Path_603"></path>
                </g>
            </g>
        </g>
    </g>
</svg>
