<?xml version="1.0" encoding="UTF-8"?>
<svg width="20px" height="20px" viewBox="0 0 20 20" version="1.1" xmlns="http://www.w3.org/2000/svg"
     xmlns:xlink="http://www.w3.org/1999/xlink">
    <title>Group_686</title>
    <g id="Page-1" stroke="none" stroke-width="1" fill="none" fill-rule="evenodd" stroke-linecap="round"
       stroke-linejoin="round">
        <g id="24x24-Fill-icon" transform="translate(-181.861691, -3.988036)" stroke="#000000" stroke-width="2">
            <g id="Group_686" transform="translate(183.691691, 5.978036)">
                <line x1="8.45" y1="12.9" x2="2.84217094e-14" y2="12.9" id="Path_426"></line>
                <path d="M9.52,12.9 C9.52,15.56 10.41,16.45 13.07,16.45 C15.73,16.45 16.62,15.56 16.62,12.9 C16.62,10.24 15.73,9.35 13.07,9.35 C10.41,9.35 9.52,10.23 9.52,12.9 Z"
                      id="Path_427" fill="#000000" fill-rule="nonzero"></path>
                <line x1="8.17" y1="3.55" x2="16.62" y2="3.55" id="Path_428"></line>
                <path d="M7.1,3.55 C7.1,0.88 6.22,8.8817842e-16 3.55,8.8817842e-16 C0.88,8.8817842e-16 0,0.88 0,3.55 C0,6.22 0.89,7.1 3.55,7.1 C6.21,7.1 7.1,6.21 7.1,3.55 Z"
                      id="Path_429" fill="#000000" fill-rule="nonzero"></path>
            </g>
        </g>
    </g>
</svg>
