<?xml version="1.0" encoding="UTF-8"?>
<svg width="19px" height="19px" viewBox="0 0 19 19" version="1.1" xmlns="http://www.w3.org/2000/svg"
     xmlns:xlink="http://www.w3.org/1999/xlink">
    <title>Group_686</title>
    <g id="Page-1" stroke="none" stroke-width="1" fill="none" fill-rule="evenodd" stroke-linecap="round"
       stroke-linejoin="round">
        <g id="24x24-Stroke-icon" transform="translate(-136.252096, -132.189301)" stroke="#130F26" stroke-width="1.5">
            <g id="Group_686" transform="translate(137.152096, 133.429301)">
                <line x1="8.48" y1="12.9" x2="0.04" y2="12.9" id="Path_426"></line>
                <path d="M9.56,12.9 C9.56,15.57 10.44,16.45 13.11,16.45 C15.78,16.45 16.66,15.57 16.66,12.9 C16.66,10.23 15.77,9.35 13.11,9.35 C10.45,9.35 9.56,10.24 9.56,12.9 Z"
                      id="Path_427"></path>
                <line x1="8.22" y1="3.55" x2="16.66" y2="3.55" id="Path_428"></line>
                <path d="M7.1,3.55 C7.1,0.89 6.21,2.84217094e-14 3.55,2.84217094e-14 C0.89,2.84217094e-14 0,0.89 0,3.55 C0,6.21 0.89,7.1 3.55,7.1 C6.21,7.1 7.1,6.22 7.1,3.55 Z"
                      id="Path_429"></path>
            </g>
        </g>
    </g>
</svg>
