<?xml version="1.0" encoding="UTF-8"?>
<svg width="16px" height="21px" viewBox="0 0 16 21" version="1.1" xmlns="http://www.w3.org/2000/svg"
     xmlns:xlink="http://www.w3.org/1999/xlink">
    <title>Group_9</title>
    <g id="Page-1" stroke="none" stroke-width="1" fill="none" fill-rule="evenodd" stroke-linecap="round"
       stroke-linejoin="round">
        <g id="24x24-Stroke-icon" transform="translate(-225.252096, -43.189301)" stroke="#130F26" stroke-width="1.5">
            <g id="Group_9" transform="translate(226.662096, 44.029188)">
                <path d="M6.84,19.2401132 C3.15,19.2401132 0,18.6701132 0,16.3701132 C0,14.0701132 3.13,11.9401132 6.84,11.9401132 C10.55,11.9401132 13.68,14.0401132 13.68,16.3401132 C13.68,18.6401132 10.59,19.2401132 6.84,19.2401132 Z"
                      id="Path_30"></path>
                <path d="M6.83,8.76012496 C8.60244483,8.75604804 10.1977265,7.68415755 10.8713257,6.04469384 C11.544925,4.40523013 11.164046,2.5214032 9.90644523,1.27239655 C8.6488445,0.0233898989 6.76245014,-0.344562634 5.12764389,0.340262684 C3.49283763,1.025088 2.43191129,2.62768215 2.43995407,4.40011319 C2.45102162,6.8152132 4.41488119,8.76565232 6.83,8.76012496 L6.83,8.76012496 Z"
                      id="Path_31"></path>
            </g>
        </g>
    </g>
</svg>
