<?xml version="1.0" encoding="UTF-8"?>
<svg width="16px" height="22px" viewBox="0 0 16 22" version="1.1" xmlns="http://www.w3.org/2000/svg"
     xmlns:xlink="http://www.w3.org/1999/xlink">
    <title>Group_9</title>
    <g id="Page-1" stroke="none" stroke-width="1" fill="none" fill-rule="evenodd" stroke-linecap="round"
       stroke-linejoin="round">
        <g id="24x24-Fill-icon" transform="translate(-403.861691, -4.988036)" fill="#130F26" fill-rule="nonzero"
           stroke="#130F26" stroke-width="1.5">
            <g id="Group_9" transform="translate(405.161691, 6.188081)">
                <path d="M6.84,19.229955 C3.15,19.229955 5.68434189e-14,18.659955 5.68434189e-14,16.359955 C5.68434189e-14,14.059955 3.13,11.929955 6.84,11.929955 C10.55,11.929955 13.69,14.029955 13.69,16.329955 C13.69,18.629955 10.56,19.229955 6.84,19.229955 Z"
                      id="Path_30"></path>
                <path d="M6.84,8.74000105 C9.25344705,8.72888421 11.2009626,6.76343307 11.1899554,4.34998594 C11.1788547,1.93653881 9.21341711,-0.0109904181 6.79996991,0 C4.3865227,0.0110837809 2.43897975,1.97650773 2.44995346,4.38995501 C2.45529221,5.54895485 2.92078481,6.65838138 3.74407216,7.47416725 C4.5673595,8.28995311 5.68100027,8.74527149 6.84,8.74000105 L6.84,8.74000105 Z"
                      id="Path_31"></path>
            </g>
        </g>
    </g>
</svg>
