<?xml version="1.0" encoding="UTF-8"?>
<svg width="19px" height="21px" viewBox="0 0 19 21" version="1.1" xmlns="http://www.w3.org/2000/svg"
     xmlns:xlink="http://www.w3.org/1999/xlink">
    <title>Group 3</title>
    <g id="Page-1" stroke="none" stroke-width="1" fill="none" fill-rule="evenodd" stroke-linecap="round"
       stroke-linejoin="round">
        <g id="24x24-Stroke-icon" transform="translate(-180.252096, -131.189301)" stroke="#130F26" stroke-width="1.5">
            <g id="Group-3" transform="translate(181.031977, 132.139301)">
                <path d="M8.4701188,7.05 C9.85083067,7.05 10.9701188,8.16928813 10.9701188,9.55 C10.9701188,10.9307119 9.85083067,12.05 8.4701188,12.05 C7.08940692,12.05 5.9701188,10.9307119 5.9701188,9.55 C5.9701188,8.16928813 7.08940692,7.05 8.4701188,7.05 Z"
                      id="Path_572"></path>
                <path d="M16.6401188,4.77 L16.6401188,4.77 C16.3188782,4.20005829 15.783838,3.78155702 15.1533056,3.60703467 C14.5227733,3.43251232 13.8486938,3.51634654 13.2801188,3.84 L13.2801188,3.84 C12.7996718,4.11501122 12.2090251,4.112909 11.7305479,3.83448478 C11.2520707,3.55606057 10.9584079,3.04358606 10.9601188,2.49 C10.9654513,1.83145687 10.7075759,1.19805245 10.2437818,0.730502946 C9.77998773,0.262953442 9.14868352,0 8.4901188,0 L8.4901188,0 C7.11883663,0.00550720169 6.01010774,1.11870677 6.0101188,2.49 C6.01546874,2.89923538 5.85663766,3.29355467 5.56912509,3.58482557 C5.28161253,3.87609647 4.88938914,4.04003497 4.4801188,4.04 C4.20759168,4.03877252 3.93961199,3.97005978 3.7001188,3.84 C3.1355031,3.50987161 2.46266512,3.41817751 1.83030036,3.58518185 C1.19793559,3.75218619 0.658108248,4.16413909 0.330118799,4.73 L0.330118799,4.73 C-0.350881781,5.92103613 0.0552267084,7.43836455 1.2401188,8.13 C1.59664863,8.33847674 1.85523256,8.68062203 1.9584911,9.08051419 C2.06174964,9.48040636 2.00114267,9.90497184 1.7901188,10.26 C1.66052861,10.4927661 1.47051233,10.6862372 1.2401188,10.82 C0.0552267084,11.5116354 -0.350881781,13.0289639 0.330118799,14.22 C0.653047804,14.7882374 1.18883105,15.2046074 1.81921533,15.3772127 C2.44959961,15.5498179 3.12275861,15.4644678 3.6901188,15.14 L3.6901188,15.14 C4.430524,14.7174081 5.37321953,14.9720699 5.8001188,15.71 C5.93260837,15.9485322 6.00148374,16.2171461 6.0001188,16.49 L6.0001188,16.49 C5.99456733,17.8613133 7.09883837,18.9789966 8.4701188,18.99 L8.4701188,18.99 C9.12785735,18.9873532 9.7576046,18.7235264 10.2208206,18.2565596 C10.6840366,17.7895929 10.9427763,17.1577385 10.9401188,16.5 L10.9401188,16.5 C10.9320858,15.9437913 11.2246324,15.4264811 11.7054242,15.14671 C12.186216,14.8669389 12.7805154,14.8681965 13.2601188,15.15 C14.4395228,15.8299822 15.946766,15.4274543 16.6301188,14.25 L16.6301188,14.25 C17.3053273,13.0582187 16.9003655,11.5451742 15.7201188,10.85 L15.7201188,10.85 C14.9772992,10.4116032 14.7272489,9.45605388 15.1601188,8.71 C15.2965049,8.48165635 15.489355,8.29224995 15.7201188,8.16 C16.8981037,7.46856372 17.3069398,5.96209154 16.6401188,4.77 Z"
                      id="Path_573"></path>
            </g>
        </g>
    </g>
</svg>
