<?xml version="1.0" encoding="UTF-8"?>
<svg width="23px" height="23px" viewBox="0 0 23 23" version="1.1" xmlns="http://www.w3.org/2000/svg"
     xmlns:xlink="http://www.w3.org/1999/xlink">
    <title>Path_561</title>
    <g id="Page-1" stroke="none" stroke-width="1" fill="none" fill-rule="evenodd">
        <g id="24x24-Stroke-icon" transform="translate(-90.252096, -130.189301)" stroke="#130F26" stroke-width="1.5">
            <path d="M107.672096,144.079301 C107.406978,144.339732 107.284054,144.712228 107.342096,145.079301 L108.252096,150.189301 C108.322773,150.624363 108.140776,151.061893 107.782398,151.318483 C107.424019,151.575074 106.951183,151.606389 106.562096,151.399301 L101.942096,148.989301 C101.780022,148.907927 101.603117,148.860299 101.422096,148.849301 L101.142096,148.849301 C101.040861,148.867521 100.943044,148.901251 100.852096,148.949301 L96.2520959,151.399301 C96.0226368,151.511279 95.7642048,151.549695 95.5120959,151.509301 C94.8942707,151.397699 94.482967,150.807568 94.5920959,150.189301 L95.5120959,145.059301 C95.5736265,144.691953 95.4501815,144.317877 95.1820959,144.059301 L91.4220959,140.409301 C91.1041797,140.105834 90.9910618,139.645561 91.1320959,139.229301 C91.272442,138.816256 91.6309249,138.515593 92.0620959,138.449301 L97.2420959,137.689301 C97.6368692,137.65196 97.9845551,137.413871 98.1620959,137.059301 L100.452096,132.369301 C100.503662,132.266054 100.571154,132.171565 100.652096,132.089301 L100.752096,132.019301 C100.801948,131.964926 100.859171,131.917802 100.922096,131.879301 L101.032096,131.879301 L101.212096,131.809301 L101.652096,131.809301 C102.041088,131.847876 102.38385,132.081406 102.562096,132.429301 L104.872096,137.099301 C105.041716,137.440621 105.365754,137.678994 105.742096,137.739301 L110.922096,138.489301 C111.380633,138.527941 111.772978,138.83397 111.922096,139.269301 C112.060664,139.687486 111.943565,140.148076 111.622096,140.449301 L107.672096,144.079301 Z"
                  id="Path_561"></path>
        </g>
    </g>
</svg>
